<svg xmlns="http://www.w3.org/2000/svg" xmlns:xlink="http://www.w3.org/1999/xlink" width="22" height="22" viewBox="0 0 22 22">
    <defs>
        <path id="prefix__a" d="M8.055 1.778c1.707 0 3.071 1.314 3.071 2.958 0 .328-.067.624-.136.887.478.033.955.066 1.433.164.717-1.183 2.116-2.004 3.515-2.201-.375 1.117-.545 1.511-.545 3.253 1.364.789 2.388 1.873 2.9 3.155h.376c.922-.002 1.673.721 1.775 1.608v1.052c0 .888-.75 1.61-1.672 1.61h-.682c-.512.888-1.229 1.644-2.15 2.235l.238.493c.376.723.034 1.61-.716 1.972l-.888.427c-.24.132-.444.165-.683.165-.58 0-1.126-.296-1.4-.822l-.409-.821c-.444.066-.921.098-1.399.098-.751 0-1.433-.098-2.116-.23l-.273.757c-.239.591-.82.986-1.468.986-.17 0-.34-.033-.512-.1l-.955-.328c-.819-.263-1.228-1.084-.955-1.873l.41-1.15c-1.366-1.117-2.22-2.629-2.22-4.272 0-.46.035-.888.172-1.315C1.128 9.895.889 8.91.889 8.383c0-.887.717-1.808 1.57-2.037l.204.624c-.512.164-1.092.789-1.092 1.479 0 .625.512 1.117 1.433 1.446.546-1.25 1.57-2.3 2.901-3.056-.58-.559-.921-1.282-.921-2.103 0-1.644 1.364-2.958 3.071-2.958zm6.314 4c-.681.275-1.303.743-1.659 1.32l-.207.331-.415-.082c-.474-.055-.978-.11-1.452-.11-3.496 0-6.37 2.091-6.37 4.624 0 1.183.593 2.284 1.719 3.137l.326.248-.148.358-.356.99c-.148.359.06.744.444.881l.83.275c.06.028.148.028.237.028.326 0 .593-.193.711-.468l.237-.633.149-.469.503.11c.563.11 1.156.165 1.718.165.356 0 .742-.027 1.126-.082l.445-.055.178.357.355.688c.148.248.386.386.682.386.119 0 .237-.028.326-.083l.77-.33c.385-.165.534-.605.356-.936l-.207-.413-.238-.412.415-.275c.711-.468 1.275-1.046 1.66-1.68l.177-.274h.949c.474 0 .859-.358.859-.799l-.001.001v-.88c0-.441-.386-.799-.86-.799h-.74l-.148-.358c-.386-.936-1.215-1.761-2.282-2.367l-.296-.165v-.303c.03-.935.09-1.458.207-1.926zm-.369 4c.368 0 .667.298.667.666 0 .369-.299.667-.667.667-.368 0-.667-.298-.667-.667 0-.368.299-.666.667-.666zM8 3.11c-.99 0-1.778.711-1.778 1.606 0 .504.254.94.635 1.239.812-.345 1.753-.574 2.768-.597.102-.206.153-.413.153-.642C9.778 3.822 8.99 3.11 8 3.11z"/>
    </defs>
    <g fill="none" fill-rule="evenodd" transform="translate(.333 .333)">
        <mask id="prefix__b" fill="#fff">
            <use xlink:href="#prefix__a"/>
        </mask>
        <use fill="#000" fill-rule="nonzero" xlink:href="#prefix__a"/>
        <g fill="#979DA9" mask="url(#prefix__b)">
            <path d="M0 0H21.333V21.333H0z"/>
        </g>
    </g>
</svg>
